<?xml version="1.0" encoding="utf-8"?>
<!-- Generator: Adobe Illustrator 24.3.0, SVG Export Plug-In . SVG Version: 6.00 Build 0)  -->
<svg version="1.1" id="Layer_1" xmlns="http://www.w3.org/2000/svg" xmlns:xlink="http://www.w3.org/1999/xlink" x="0px" y="0px"
	 viewBox="0 0 30 30" style="enable-background:new 0 0 30 30;" xml:space="preserve">
<style type="text/css">
	.st0{fill-rule:evenodd;clip-rule:evenodd;fill:#077EBB;}
	.st1{fill-rule:evenodd;clip-rule:evenodd;fill:#FFFFFF;}
</style>
<g>
	<path class="st0" d="M5.5,27.5h19c1.7,0,3-1.3,3-3v-19c0-1.7-1.3-3-3-3h-19c-1.7,0-3,1.3-3,3v19C2.5,26.2,3.8,27.5,5.5,27.5z"/>
	<path class="st1" d="M24,24h-3.7v-6.3c0-1.7-0.7-2.7-2-2.7c-1.5,0-2.3,1-2.3,2.7V24h-3.6V12H16v1.6c0,0,1.1-2,3.6-2
		c2.6,0,4.4,1.6,4.4,4.8V24z M8.7,10.3C7.1,10.7,5.6,9.3,6,7.6C6.2,6.9,6.9,6.2,7.6,6c1.6-0.4,3.1,1.1,2.7,2.7
		C10.1,9.5,9.5,10.2,8.7,10.3z M6.3,24h3.7V12H6.3V24z"/>
</g>
</svg>
