<?xml version="1.0" encoding="utf-8"?>
<!-- Generator: Adobe Illustrator 24.3.0, SVG Export Plug-In . SVG Version: 6.00 Build 0)  -->
<svg version="1.1" id="Layer_1" xmlns="http://www.w3.org/2000/svg" xmlns:xlink="http://www.w3.org/1999/xlink" x="0px" y="0px"
	 viewBox="0 0 30 30" style="enable-background:new 0 0 30 30;" xml:space="preserve">
<style type="text/css">
	.st0{fill:#E42E28;}
	.st1{fill:#FFFFFF;}
	.st2{fill-rule:evenodd;clip-rule:evenodd;fill:none;}
</style>
<g>
	<path class="st0" d="M27.5,24.5c0,1.7-1.3,3-3,3h-19c-1.7,0-3-1.3-3-3v-19c0-1.7,1.3-3,3-3h19c1.7,0,3,1.3,3,3V24.5z"/>
	<path class="st1" d="M23.8,15c0,1.4,0,2.8-0.3,4.1c-0.2,0.9-1,1.6-1.9,1.7c-2.2,0.2-4.4,0.2-6.6,0.2c-2.2,0-4.4,0-6.6-0.2
		c-0.9-0.1-1.7-0.8-1.9-1.7c-0.3-1.3-0.3-2.8-0.3-4.1s0-2.8,0.3-4.1c0.2-0.9,1-1.6,1.9-1.7c2.2-0.2,4.4-0.2,6.6-0.2
		c2.2,0,4.4,0,6.6,0.2c0.9,0.1,1.7,0.8,1.9,1.7C23.8,12.2,23.8,13.6,23.8,15z"/>
	<polygon class="st0" points="12.5,11.7 12.5,18.3 17.5,15 	"/>
	<rect x="2.6" y="2.6" class="st2" width="24.7" height="24.8"/>
</g>
</svg>
