<svg xmlns="http://www.w3.org/2000/svg" version="1.1" xmlns:xlink="http://www.w3.org/1999/xlink" width="512" height="512" x="0" y="0" viewBox="0 0 416.572 416.572" style="enable-background:new 0 0 512 512" xml:space="preserve" class=""><g><path d="M374.523 4.741H44.198C20.936 4.741 0 25.677 0 48.939v318.693c0 25.589 20.936 44.198 44.198 44.198h327.998c25.589 0 44.198-20.936 44.198-44.198V48.939c2.327-23.262-18.609-44.198-41.871-44.198zM237.275 276.91l-41.872 41.872c-11.631 11.631-27.915 18.61-41.872 18.61s-32.567-6.979-41.872-18.61-18.61-27.915-18.61-41.872c0-16.284 6.979-32.567 18.61-41.872l41.872-41.872c4.652-4.652 9.305-4.652 13.957 0s4.652 9.305 0 13.957l-41.872 41.872c-6.979 6.979-11.631 18.61-11.631 27.915 0 11.631 4.652 20.936 11.631 27.915 16.284 16.284 41.872 16.284 58.156 0l41.872-41.872c4.652-4.652 9.305-4.652 13.957 0 .001 2.326.001 9.304-2.326 13.957zm9.305-111.659c4.652-4.652 9.305-4.652 13.957 0s4.652 9.305 0 13.957l-88.397 88.397c-2.326 2.326-4.652 2.326-6.979 2.326s-4.652 0-6.979-2.326c-4.652-4.652-4.652-9.305 0-13.957zm65.135 37.22-41.872 41.872c-2.326 2.326-4.652 2.326-6.979 2.326s-4.652 0-6.979-2.326c-4.652-4.652-4.652-9.305 0-13.957l41.872-41.872c6.979-6.979 11.631-18.61 11.631-27.915 0-11.631-4.652-20.936-11.631-27.915-16.284-16.284-41.872-16.284-58.156 0l-41.872 41.872c-4.652 4.652-9.305 4.652-13.957 0s-4.652-9.305 0-13.957l41.872-41.872c23.262-23.262 62.808-23.262 86.071 0 11.631 11.631 18.61 27.915 18.61 41.872s-6.979 30.24-18.61 41.872z" fill="#1b2029" opacity="1" data-original="#000000" class=""></path></g></svg>