<svg xmlns="http://www.w3.org/2000/svg" version="1.1" xmlns:xlink="http://www.w3.org/1999/xlink" width="512" height="512" x="0" y="0" viewBox="0 0 512 512" style="enable-background:new 0 0 512 512" xml:space="preserve" class=""><g><path d="M407 0H105C47.103 0 0 47.103 0 105v302c0 57.897 47.103 105 105 105h302c57.897 0 105-47.103 105-105V105C512 47.103 464.897 0 407 0zm-32.296 146L255.958 264.745 137.213 146h237.491zm-271.95 192.033A14.933 14.933 0 0 1 101 331V161c0-2.542.638-4.935 1.754-7.033L194.787 246l-92.033 92.033zM137.213 346 216 267.213l39.959 39.959 40-40L374.787 346H137.213zM411 331c0 2.542-.638 4.935-1.754 7.033l-92.075-92.074 92.047-92.048A14.913 14.913 0 0 1 411 161v170z" fill="#1b2029" opacity="1" data-original="#000000" class=""></path></g></svg>