<?xml version="1.0" encoding="utf-8"?>
<!-- Generator: Adobe Illustrator 24.3.0, SVG Export Plug-In . SVG Version: 6.00 Build 0)  -->
<svg version="1.1" id="Layer_1" xmlns="http://www.w3.org/2000/svg" xmlns:xlink="http://www.w3.org/1999/xlink" x="0px" y="0px"
	 viewBox="0 0 30 30" style="enable-background:new 0 0 30 30;" xml:space="preserve">
<style type="text/css">
	.st0{fill:#FFFFFF;}
	.st1{fill:#010101;}
</style>
<g>
	<path class="st0" d="M27.5,24.5c0,1.7-1.3,3-3,3h-19c-1.7,0-3-1.3-3-3v-19c0-1.7,1.3-3,3-3h19c1.7,0,3,1.3,3,3V24.5z"/>
	<g id="layer1" transform="translate(52.390088,-25.058597)">
		<path id="path1009" class="st1" d="M-44.9,33l5.8,7.7l-5.8,6.3h1.3l5.1-5.5l4.1,5.5h4.5l-6.1-8.2l5.4-5.9h-1.3l-4.7,5.1l-3.8-5.1
			H-44.9z M-42.9,34h2.1l9.1,12.1h-2.1L-42.9,34z"/>
	</g>
</g>
</svg>
